<?xml version="1.0" encoding="UTF-8"?>
<!DOCTYPE svg PUBLIC "-//W3C//DTD SVG 1.1//EN" "http://www.w3.org/Graphics/SVG/1.1/DTD/svg11.dtd">
<svg xmlns="http://www.w3.org/2000/svg" version="1.1" width="666px" height="672px" style="shape-rendering:geometricPrecision; text-rendering:geometricPrecision; image-rendering:optimizeQuality; fill-rule:evenodd; clip-rule:evenodd" xmlns:xlink="http://www.w3.org/1999/xlink">
<g><path style="opacity:1" fill="#e99836" d="M -0.5,-0.5 C 221.5,-0.5 443.5,-0.5 665.5,-0.5C 665.5,223.5 665.5,447.5 665.5,671.5C 443.5,671.5 221.5,671.5 -0.5,671.5C -0.5,447.5 -0.5,223.5 -0.5,-0.5 Z"/></g>
<g><path style="opacity:1" fill="#ea3c12" d="M 124.5,90.5 C 263.167,90.5 401.833,90.5 540.5,90.5C 540.5,250.5 540.5,410.5 540.5,570.5C 401.833,570.5 263.167,570.5 124.5,570.5C 124.5,410.5 124.5,250.5 124.5,90.5 Z"/></g>
<g><path style="opacity:1" fill="#ea9836" d="M 170.5,136.5 C 224.168,136.333 277.834,136.5 331.5,137C 363.191,137.525 393.191,144.858 421.5,159C 451.066,177.65 463.232,204.483 458,239.5C 452.636,268.847 437.136,291.014 411.5,306C 402.723,310.389 393.723,314.223 384.5,317.5C 414.22,321.79 441.22,332.623 465.5,350C 495.405,378.436 502.571,411.936 487,450.5C 476.987,470.18 462.487,485.68 443.5,497C 414.757,513.554 383.757,522.554 350.5,524C 290.501,524.5 230.501,524.667 170.5,524.5C 170.207,520.563 170.54,516.73 171.5,513C 187.411,505.534 203.411,498.367 219.5,491.5C 219.667,384.499 219.5,277.499 219,170.5C 203.242,163.038 187.409,155.705 171.5,148.5C 170.509,144.555 170.176,140.555 170.5,136.5 Z"/></g>
<g><path style="opacity:1" fill="#ea3c12" d="M 277.5,171.5 C 295.524,171.212 313.524,171.712 331.5,173C 346.325,175.206 360.325,179.873 373.5,187C 390.765,199.363 399.098,216.196 398.5,237.5C 398.927,265.562 386.26,285.062 360.5,296C 352.086,299.471 343.42,302.138 334.5,304C 315.551,305.978 296.551,306.811 277.5,306.5C 277.5,261.5 277.5,216.5 277.5,171.5 Z"/></g>
<g><path style="opacity:1" fill="#ea6a24" d="M 331.5,341.5 C 313.833,341.5 296.167,341.5 278.5,341.5C 278.5,390.833 278.5,440.167 278.5,489.5C 297.833,489.5 317.167,489.5 336.5,489.5C 317.007,490.497 297.34,490.83 277.5,490.5C 277.5,440.5 277.5,390.5 277.5,340.5C 295.674,340.17 313.674,340.503 331.5,341.5 Z"/></g>
<g><path style="opacity:1" fill="#ea3c12" d="M 331.5,341.5 C 353.613,341.262 374.946,345.095 395.5,353C 420.882,364.574 433.548,384.407 433.5,412.5C 434.73,443.045 421.73,464.878 394.5,478C 375.928,485.643 356.595,489.476 336.5,489.5C 317.167,489.5 297.833,489.5 278.5,489.5C 278.5,440.167 278.5,390.833 278.5,341.5C 296.167,341.5 313.833,341.5 331.5,341.5 Z"/></g>
<g><path style="opacity:1" fill="#e6331e" d="M 466.5,377.5 C 472.005,380.171 471.671,381.838 465.5,382.5C 465.366,380.708 465.699,379.042 466.5,377.5 Z"/></g>
</svg>
